# xmcd
#
# Track frame offsets: 
#        150
#        14496
#        32843
#        48516
#        61560
#        76759
#        95262
#        118547
#        136218
#        149886
#        168141
#
# Disc length: 2532 seconds
#
# Revision: 0
# Processed by: cddbd v1.5.2PL0 Copyright (c) Steve Scherf et al.
# Submitted via: ExactAudioCopy v0.99pb4
#
DISCID=8909e20b
DTITLE=Foxy - Live
DYEAR=1980
DGENRE=Soul
TTITLE0=Party Boys (Live)
TTITLE1=Please (Live)
TTITLE2=Girls (Live)
TTITLE3=She's so Cool (Live)
TTITLE4=Hot Numbers (Live)
TTITLE5=Rrrrrrock (Live)
TTITLE6=Sex Symbol (Live)
TTITLE7=Ba Ba Cool (Live)
TTITLE8=Banshee (Live)
TTITLE9=Gimme What Ya' Got (Live)
TTITLE10=Get Off (Live)
EXTD=
EXTT0=
EXTT1=
EXTT2=
EXTT3=
EXTT4=
EXTT5=
EXTT6=
EXTT7=
EXTT8=
EXTT9=
EXTT10=
PLAYORDER=
